Coordinates
version=1
nRows=9
nColumns=36
inDegrees=yes

Units are S.I. units (second, meters, Newtons, ...)
If the header above contains a line with 'inDegrees', this indicates whether rotational values are in degrees (yes) or radians (no).

endheader
time	pelvis_tilt	pelvis_list	pelvis_rotation	pelvis_tx	pelvis_ty	pelvis_tz	hip_flexion_r	hip_adduction_r	hip_rotation_r	knee_angle_r	knee_angle_r_beta	ankle_angle_r	subtalar_angle_r	mtp_angle_r	hip_flexion_l	hip_adduction_l	hip_rotation_l	knee_angle_l	knee_angle_l_beta	ankle_angle_l	subtalar_angle_l	mtp_angle_l	lumbar_extension	lumbar_bending	lumbar_rotation	arm_flex_r	arm_add_r	arm_rot_r	elbow_flex_r	pro_sup_r	arm_flex_l	arm_add_l	arm_rot_l	elbow_flex_l	pro_sup_l
      1.06000000	    -15.66931561	      0.89296189	      3.15827574	     -0.76501009	      1.44298962	     -0.57867733	     25.58119093	     -2.68771489	     -5.90944250	     38.75536354	      0.67640870	    -15.71902388	    -11.14413844	     -4.13378140	     24.31983747	     -1.19581105	     -3.42076852	     41.69909365	      0.72778648	    -11.54443839	    -13.41906550	     -4.13378140	     -7.46505382	     -0.60804463	     -7.57014261	     50.80018090	    -27.74052519	     -2.29436446	    125.91494037	    102.17914420	     56.83821144	    -27.16228702	      5.28920640	    110.32965665	     93.91403416
      1.07000000	    -15.14821321	      0.90981469	      3.25358168	     -0.75267437	      1.44695640	     -0.57941407	     25.41063469	     -2.77298877	     -5.90249198	     37.68905371	      0.65779808	    -15.57652971	    -11.10385724	     -4.17000221	     24.19235302	     -1.34966128	     -3.24271926	     41.23826152	      0.71974344	    -11.52438480	    -13.44504381	     -4.17000221	     -7.91532869	     -0.62742975	     -7.85560509	     49.54134976	    -28.70819537	     -3.95289837	    127.42898032	    102.17171120	     55.75652409	    -28.36016914	      4.09891442	    112.24341588	     94.12522934
      1.08000000	    -14.58438433	      0.94638536	      3.29604677	     -0.74027020	      1.45015019	     -0.58012503	     25.06689665	     -2.82710546	     -5.84002615	     36.23919206	      0.63249322	    -15.47331862	    -10.82984588	     -4.20643927	     23.90053087	     -1.48374496	     -3.09384115	     40.42349109	      0.70552301	    -11.64727930	    -13.44108766	     -4.20643927	     -8.43527080	     -0.65319102	     -8.08297870	     48.15297623	    -29.65294613	     -5.67645440	    128.77593916	    102.09437590	     54.55534880	    -29.43520404	      2.68684111	    114.04525862	     94.28860213
      1.09000000	    -14.05599627	      0.99698695	      3.32774594	     -0.72793370	      1.45244786	     -0.58089786	     24.70529473	     -2.92269357	     -5.83990863	     34.59555927	      0.60380642	    -15.45136518	    -10.21774042	     -4.24270741	     23.58586489	     -1.60267342	     -3.00850893	     39.35033153	      0.68679285	    -11.87988127	    -13.44284771	     -4.24270741	     -8.95060206	     -0.69108528	     -8.29324235	     46.63049193	    -30.66708196	     -7.45297953	    130.01773299	    101.96126718	     53.14840578	    -30.45284162	      1.12801632	    115.75716868	     94.42135945
      1.10000000	    -13.69827650	      1.05195783	      3.33392294	     -0.71566965	      1.45363743	     -0.58160527	     24.51583865	     -3.05532760	     -5.98114281	     32.84580020	      0.57326736	    -15.50956312	     -9.39741212	     -4.26789971	     23.40903686	     -1.71400335	     -2.97949563	     38.09101559	      0.66481364	    -12.06474443	    -13.39931398	     -4.26789971	     -9.26440460	     -0.73685129	     -8.43145473	     44.88712840	    -31.71930601	     -9.05567201	    131.08302235	    101.84991355	     51.55317054	    -31.50931713	     -0.33285227	    117.31853370	     94.52666228
      1.11000000	    -13.20420794	      1.12893465	      3.39816230	     -0.70345998	      1.45401976	     -0.58244971	     24.18229595	     -3.24746620	     -6.21291690	     31.08663410	      0.54256412	    -15.86407965	     -8.22637923	     -4.30484249	     23.08390149	     -1.80195194	     -3.05160547	     36.70399780	      0.64060561	    -12.45126071	    -13.37901973	     -4.30484249	     -9.82977928	     -0.78276763	     -8.62544535	     43.09141300	    -32.77334292	    -11.13647279	    132.21179382	    101.64372932	     49.87884101	    -32.37504771	     -2.19498669	    118.93655145	     94.58160073
      1.12000000	    -12.78360671	      1.26056619	      3.46379558	     -0.69114612	      1.45330353	     -0.58338728	     23.91855220	     -3.48124416	     -6.43053024	     29.32819402	      0.51187355	    -16.35496695	     -7.22071512	     -4.36407211	     22.77439443	     -1.79298826	     -3.13410695	     35.15410001	      0.61355479	    -12.86136030	    -13.48741786	     -4.36407211	    -10.25453554	     -0.91027577	     -8.71708982	     40.92564127	    -33.92530461	    -13.19532898	    133.17022697	    101.27388228	     48.12805681	    -33.11153392	     -3.78821391	    120.27429218	     94.54466863
      1.13000000	    -12.62668834	      1.42329432	      3.48569142	     -0.67907173	      1.45115297	     -0.58429263	     24.00661442	     -3.73545753	     -6.60255396	     27.64815157	      0.48255128	    -17.16092356	     -6.37151660	     -4.39754861	     22.75739608	     -1.72263265	     -3.11312215	     33.57242676	      0.58594938	    -13.06566388	    -13.29569688	     -4.39754861	    -10.42612373	     -1.08894369	     -8.78833323	     38.75313938	    -35.04963550	    -15.13366560	    134.05193612	    101.02112034	     46.25644759	    -33.95937587	     -5.38438750	    121.66626149	     94.54684706
      1.14000000	    -12.31326383	      1.60226737	      3.55640682	     -0.66682449	      1.44816580	     -0.58533743	     23.90601819	     -4.05801647	     -7.02029805	     25.95859965	      0.45306303	    -18.52464244	     -5.90404507	     -5.02943472	     22.54778553	     -1.62141479	     -3.09838080	     31.89559483	      0.55668315	    -13.62734921	    -13.36065609	     -5.02943472	    -10.83520468	     -1.38001181	     -7.92592795	     35.04240761	    -36.94910097	    -19.11545956	    135.71325942	     97.37145471	     45.38385179	    -33.66662507	     -5.74682085	    122.39908446	     93.56954683
